<?xml version="1.0" encoding="UTF-8"?>
<svg id="Layer_2" data-name="Layer 2" xmlns="http://www.w3.org/2000/svg" viewBox="0 0 77.15 46.45">
  <defs>
    <style>
      .cls-1 {
        fill: #6abd45;
        stroke: #e63a48;
        stroke-miterlimit: 10;
        stroke-width: 8.04px;
      }

      .cls-2 {
        fill: #010101;
      }

      .cls-2, .cls-3 {
        stroke-width: 0px;
      }

      .cls-3 {
        fill: #818181;
      }
    </style>
  </defs>
  <g id="Layer_1-2" data-name="Layer 1">
    <g>
      <path class="cls-2" d="M30.89,32.63c0-6.29.1-13.34.26-17.5h-.25c-1.73,7.52-5.42,19.8-8.95,31.33h-6.79c-2.69-10.08-6.5-24.07-8.11-31.43h-.25c.31,4.32.47,11.91.47,18.23v13.2H0V9.6h11.86c2.87,9.63,6.09,21.71,7.2,27.2h.06c.9-4.84,4.95-17.76,8.02-27.2h11.43v36.85h-7.69v-13.82Z"/>
      <path class="cls-3" d="M69.46,32.63c0-6.29.1-13.34.26-17.5h-.25c-1.73,7.52-5.42,19.8-8.95,31.33h-6.79c-2.69-10.08-6.5-24.07-8.11-31.43h-.25c.31,4.32.47,11.91.47,18.23v13.2h-7.26V9.6h11.86c2.87,9.63,6.09,21.71,7.2,27.2h.06c.9-4.84,4.95-17.76,8.02-27.2h11.43v36.85h-7.69v-13.82Z"/>
      <polyline class="cls-1" points="77.15 4.02 38.57 4.02 0 4.02"/>
    </g>
  </g>
</svg>